<?xml version="1.0" standalone="no"?>
<!DOCTYPE svg PUBLIC "-//W3C//DTD SVG 20010904//EN"
 "http://www.w3.org/TR/2001/REC-SVG-20010904/DTD/svg10.dtd">
<svg version="1.0" xmlns="http://www.w3.org/2000/svg"
 width="238.000000pt" height="212.000000pt" viewBox="0 0 238.000000 212.000000"
 preserveAspectRatio="xMidYMid meet">

<g transform="translate(0.000000,212.000000) scale(0.100000,-0.100000)"
fill="#000000" stroke="none">
<path d="M759 2100 c-230 -48 -335 -157 -354 -367 l-7 -81 -48 -7 c-160 -22
-295 -164 -335 -350 -41 -194 8 -366 145 -507 65 -67 65 -68 48 -90 -50 -65
-65 -216 -34 -337 35 -138 109 -232 230 -293 81 -41 187 -59 346 -61 112 0
157 4 264 27 151 33 224 32 381 -4 131 -30 355 -34 455 -7 199 54 309 157 354
333 32 123 11 302 -39 344 -13 10 -4 24 55 87 117 125 168 267 156 427 -11
135 -51 229 -135 319 -55 59 -118 93 -204 109 l-64 12 -5 91 c-6 115 -32 178
-99 240 -83 77 -224 126 -366 126 -103 0 -164 -14 -249 -60 l-70 -38 -66 38
c-119 70 -206 82 -359 49z m176 -359 c52 -24 78 -53 111 -126 37 -79 39 -178
5 -243 -62 -120 -212 -72 -271 85 -17 46 -21 74 -18 135 4 87 21 121 79 150
42 22 44 22 94 -1z m610 7 c40 -18 67 -71 72 -142 12 -150 -82 -296 -190 -296
-79 0 -135 96 -123 210 17 166 134 277 241 228z m-1041 -409 c93 -26 186 -161
186 -272 0 -142 -94 -197 -207 -123 -144 95 -181 339 -60 391 39 17 34 17 81
4z m1466 -14 c42 -22 64 -69 64 -135 -2 -179 -197 -343 -303 -254 -102 85 -28
317 123 385 50 23 78 24 116 4z m-669 -91 c67 -37 95 -76 120 -165 32 -116 81
-190 210 -320 79 -79 95 -122 75 -199 -7 -27 -25 -65 -40 -84 -65 -85 -138
-90 -342 -21 -156 52 -133 53 -314 -10 -137 -48 -210 -51 -267 -13 -80 52
-118 184 -74 253 11 17 55 67 98 111 88 92 147 183 169 264 31 117 76 171 171
206 54 20 132 11 194 -22z"/>
</g>
</svg>
